<svg xmlns="http://www.w3.org/2000/svg" viewBox="0 0 64 64" fill="none">
  <rect width="64" height="64" rx="16" fill="#fff7ed" />
  <path
    d="M15 18.5C15 16.567 16.567 15 18.5 15H41.5C43.433 15 45 16.567 45 18.5V27.5C45 29.433 43.433 31 41.5 31H18.5C16.567 31 15 29.433 15 27.5V18.5Z"
    fill="#f97316"
  />
  <path
    d="M45 22H50.5C53.538 22 56 24.462 56 27.5V33"
    stroke="#7c2d12"
    stroke-width="4"
    stroke-linecap="round"
    stroke-linejoin="round"
  />
  <path
    d="M42 31H21C19.895 31 19 31.895 19 33V35C19 36.105 19.895 37 21 37H42C43.105 37 44 36.105 44 35V33C44 31.895 43.105 31 42 31Z"
    fill="#ea580c"
  />
  <path
    d="M52 33V44"
    stroke="#7c2d12"
    stroke-width="4"
    stroke-linecap="round"
  />
  <path
    d="M52 44C52 48.418 48.418 52 44 52H38"
    stroke="#7c2d12"
    stroke-width="4"
    stroke-linecap="round"
    stroke-linejoin="round"
  />
  <path
    d="M30 49C30 47.343 31.343 46 33 46H43C44.657 46 46 47.343 46 49V52H30V49Z"
    fill="#c2410c"
  />
</svg>
