<svg width="1200" height="900" viewBox="0 0 1200 900" fill="none" xmlns="http://www.w3.org/2000/svg">
  <rect width="1200" height="900" rx="40" fill="#F8FAFC"/>
  <rect x="82" y="96" width="1036" height="708" rx="28" fill="#E2E8F0"/>
  <rect x="130" y="144" width="480" height="580" rx="20" fill="#FEF3C7"/>
  <rect x="610" y="144" width="460" height="580" rx="20" fill="#FFF7ED"/>
  <rect x="176" y="192" width="392" height="492" rx="16" fill="#FDE68A"/>
  <rect x="654" y="192" width="372" height="492" rx="16" fill="#FED7AA"/>
  <rect x="790" y="242" width="92" height="316" rx="24" fill="#F97316"/>
  <rect x="882" y="242" width="92" height="316" rx="24" fill="#FDBA74"/>
  <path d="M148 732H1052V804H148V732Z" fill="#C08457"/>
  <rect x="244" y="550" width="176" height="126" rx="20" fill="#94A3B8"/>
  <rect x="454" y="518" width="138" height="158" rx="22" fill="#CBD5E1"/>
  <circle cx="864" cy="650" r="96" fill="#1E293B"/>
  <circle cx="864" cy="616" r="46" fill="#F8D2B7"/>
  <rect x="794" y="682" width="140" height="122" rx="24" fill="#F97316"/>
  <rect x="760" y="522" width="172" height="196" rx="32" fill="#FB923C"/>
  <rect x="800" y="804" width="38" height="96" rx="16" fill="#475569"/>
  <rect x="888" y="804" width="38" height="96" rx="16" fill="#475569"/>
  <rect x="636" y="454" width="198" height="24" rx="12" transform="rotate(-20 636 454)" fill="#334155"/>
  <rect x="806" y="394" width="178" height="34" rx="17" transform="rotate(-20 806 394)" fill="#F97316"/>
</svg>
