<svg width="1200" height="900" viewBox="0 0 1200 900" fill="none" xmlns="http://www.w3.org/2000/svg">
  <rect width="1200" height="900" rx="40" fill="#EFF6FF"/>
  <rect y="646" width="1200" height="254" fill="#DBEAFE"/>
  <rect x="136" y="120" width="928" height="500" rx="28" fill="#E0F2FE"/>
  <rect x="182" y="164" width="836" height="412" rx="18" fill="#F8FAFC"/>
  <rect x="232" y="216" width="218" height="126" rx="16" fill="#BFDBFE"/>
  <rect x="490" y="216" width="218" height="126" rx="16" fill="#93C5FD"/>
  <rect x="748" y="216" width="218" height="126" rx="16" fill="#60A5FA"/>
  <rect x="232" y="376" width="734" height="154" rx="16" fill="#E0F2FE"/>
  <rect x="310" y="706" width="580" height="138" rx="28" fill="#0F172A"/>
  <circle cx="880" cy="616" r="92" fill="#1E293B"/>
  <circle cx="880" cy="584" r="44" fill="#F8D2B7"/>
  <rect x="818" y="650" width="124" height="116" rx="24" fill="#2563EB"/>
  <rect x="806" y="504" width="148" height="172" rx="30" fill="#3B82F6"/>
  <rect x="824" y="764" width="36" height="96" rx="16" fill="#334155"/>
  <rect x="900" y="764" width="36" height="96" rx="16" fill="#334155"/>
  <rect x="640" y="444" width="164" height="24" rx="12" transform="rotate(-16 640 444)" fill="#334155"/>
  <rect x="780" y="398" width="158" height="30" rx="15" transform="rotate(-16 780 398)" fill="#2563EB"/>
  <rect x="244" y="736" width="86" height="52" rx="20" fill="#94A3B8"/>
  <rect x="870" y="736" width="86" height="52" rx="20" fill="#94A3B8"/>
</svg>
